<?xml version="1.0" encoding="utf-8"?>
<!-- Svg Vector Icons : http://www.onlinewebfonts.com/icon -->
<!DOCTYPE svg PUBLIC "-//W3C//DTD SVG 1.1//EN" "http://www.w3.org/Graphics/SVG/1.1/DTD/svg11.dtd">
<svg version="1.1" xmlns="http://www.w3.org/2000/svg" xmlns:xlink="http://www.w3.org/1999/xlink" x="0px" y="0px" viewBox="0 0 1000 1000" enable-background="new 0 0 1000 1000" xml:space="preserve">
<metadata> Svg Vector Icons : http://www.onlinewebfonts.com/icon </metadata>
<g><path d="M760.5,747.8L669.2,603c-7-11.3-21.6-14.2-32.6-7.4L590.1,635c-22.7,10.9-43.8-11.9-81.2-59.8l-78-123.3c-15.7-31.7-28.1-64.1-6.3-80.3l53.6-28.2v-0.1c11.6-7.3,13.9-22.1,7.3-32.7v-0.1l-91.3-144.8c-7-11.2-21.6-14.4-32.5-7.4l-47.6,37.5c-28.1,24.5-96.8,138.2,52.9,381.7c155.2,252.7,296.2,247.1,331.4,229.4l55-26v-0.1C764.9,773.3,767.2,758.6,760.5,747.8L760.5,747.8z"/><path d="M500,10C229.8,10,10,229.8,10,500c0,270.3,219.8,490,490,490c270.1,0,490-219.8,490-490C990,229.8,770.1,10,500,10z M500,937C259,937,62.9,741.1,62.9,500C62.9,259.1,259,63,500,63c240.9,0,437,196.1,437,437C937,741.1,740.9,937,500,937z"/></g>
</svg>